<svg xmlns="http://www.w3.org/2000/svg" xmlns:xlink="http://www.w3.org/1999/xlink" width="50" height="50" viewBox="0 0 50 50"><defs><style>.a{fill:url(#a);}.b{fill:#fff;}</style><linearGradient id="a" x1="0.81" y1="0.899" x2="0.145" y2="0.21" gradientUnits="objectBoundingBox"><stop offset="0" stop-color="#0800db"/><stop offset="1" stop-color="#008fff"/></linearGradient></defs><g transform="translate(-20 -11)"><g transform="translate(20 11)"><circle class="a" cx="25" cy="25" r="25"/></g><path class="b" d="M16.875,29.567H6.026a.434.434,0,0,1-.407-.279c-.111-.3-.22-.605-.323-.919a9.753,9.753,0,0,0-3.454.685.442.442,0,0,1-.539-.179A9.5,9.5,0,0,1,0,23.991,9.637,9.637,0,0,1,1.078,19.5a7.409,7.409,0,0,1,2.807-3A29.646,29.646,0,0,1,5.478,8.667c.13-.367.248-.681.36-.958A18.288,18.288,0,0,1,11.179.094a.442.442,0,0,1,.546,0,18.288,18.288,0,0,1,5.341,7.615c.128.319.26.674.393,1.053A29.7,29.7,0,0,1,19.017,16.5a7.413,7.413,0,0,1,2.806,3A9.635,9.635,0,0,1,22.9,23.992a9.5,9.5,0,0,1-1.3,4.884.442.442,0,0,1-.539.179,9.732,9.732,0,0,0-3.453-.686c-.1.306-.21.615-.323.919A.437.437,0,0,1,16.875,29.567Zm-5.424-17.1a4.9,4.9,0,1,0,5.008,4.9A4.959,4.959,0,0,0,11.451,12.464Zm.156-5.955a2.416,2.416,0,1,0,2.469,2.415A2.446,2.446,0,0,0,11.607,6.509Z" transform="translate(42.926 17.255) rotate(30)"/></g></svg>