<svg xmlns="http://www.w3.org/2000/svg" width="177.187" height="85" viewBox="0 0 177.187 85"><defs><style>.a{fill:#fff;}.a,.b,.c{fill-rule:evenodd;}.b{fill:#6c6a6a;}.c{fill:#c6c6c6;}</style></defs><g transform="translate(0)"><path class="a" d="M112.644-181.434h0l-2.646,3.6-3.49-3.687-4.9,5.74-1.773-7.429-7.12,4.391,6.051,13.677,6.445-4,4.7,5.966,1.154-1.07H118.1l3.237-4.784h1.07l2.139,4.193,7.148-.788.675.788,11.622-.985.592-1.351,1.069,2.617,5.966-1.153v-3.04l4.474,4.193,3.152-3.518v3.631h7.121l.084,1.07H172.9l.506-4.587,6.923,5.262.7-5.656,3.01,4.672h10.272l4.784-6.445v-4.869H188.74l9.175-2.138-7.429-4.025h-5.855l-2.926,3.827.591-4.221-6.951,3.434v3.011l-8.7-4.785v-1.351l-7.4,1.154v7.824l-4.418-4.193,2.645-5.291h-8.1l-.985,1.182-1.266-1.548-5.179,1.942,1.773,8.19H140l-.788-9.175-8.02-.787.506,11.059-7.824-12.889-5.065,6.051,2.026-3.715Z" transform="translate(-35.201 185.189)"/><path class="a" d="M75.588-174.773,71-174.295v4.108h5.178v5.572l-18.068,1.07v-1.182H52.258l.478-4.475h-2.42v5.46h-6.36V-174.1l-3.04.479v9.286l-8.977-.084,1.266-9.09-5.46.591-3.827-5.178L44.04-179.67v-1.35l6.445.674v4.587l1.857-.281v-5.571l7.739-1.773-.394,4.981,15.9-1.943v5.572Z" transform="translate(-21.892 185.115)"/><path class="a" d="M184.9-151.051l-28.93-2.646-1.941,42.888-17.477-46.6-16.913-1.463-11.82,46.013-22.851-1.577,1.773-7.232,19.531-2.054v-11.116l-18.18.2-.985-6.642,22.289-1.069,3.011-15.45-41.4,3.237v17.56l-12.89-19.531-32.645-2.927L22.349-97.919l29.324-2.926,18.546-12.72v12.747l39.961-.224-.9-5.488,10.075,5.094,9.175-18.968,5.769-.957.479,17.476,18.573-1.857v5.966l25.694-2.533,17.083-11.623.085-18.968Zm-145.242,33.8L41.6-138.078h0l4.193-.675,2.166,18.546Zm89.774-15.535.648-2.28.957,2.28Zm39.907,16.042,1.379-17.7,2.448-.507,2.279,15.929Z" transform="translate(-21.588 180.488)"/><g transform="translate(0 0)"><path class="b" d="M198.59-136.759a4.729,4.729,0,0,0-1.182-2.927l-9.877-15.45a4.059,4.059,0,0,0-3.125-2.138l-28.113-2.251c-.929.085-1.436.7-1.577,1.857l-1.6,34.277-14.128-38.47a3.148,3.148,0,0,0-1.266-1.436c1.295.113,2.112-.281,2.477-1.07l1.576,1.577c.845.759,1.886.591,3.068-.451a.943.943,0,0,0,1.1.9h5.74a3,3,0,0,0,2.055.619h6.67c1.182,0,1.774-.816,1.828-2.562l3.912,3.012c1.914,1.351,2.983.732,3.265-1.857a2.667,2.667,0,0,0,2.814,1.745h7.993a3.028,3.028,0,0,0,2.448-.957l4.164-4.7a5.44,5.44,0,0,0,1.3-2.729V-173.8a2.255,2.255,0,0,0-1.407-2.448,2.533,2.533,0,0,0-1.407-2.083l-6.331-3.489a4.277,4.277,0,0,0-2.28-.366H170.56a1.677,1.677,0,0,0-2.363-.591l-7.233,3.714v1.577l-5.74-3.63c-.141-.844-.817-1.238-1.971-1.182l-6.922.9a2.069,2.069,0,0,0-2.055-1.464h-8.414q-.761-1.14-2.533-.506l-5.18,1.857a1.4,1.4,0,0,0-1.462-.675l-8.19-.985c-1.013-.14-1.548.113-1.576.7v5.854l-4.587-7.712c-.732-1.462-1.576-1.6-2.533-.393l-1.661,1.857h-7.908a1.637,1.637,0,0,0-1.548.9l.169.169h8.189l-2.026,3.715,5.065-6.052,7.824,12.889-.506-11.059,8.02.787.788,9.175h3.714l-1.774-8.189,5.18-1.942,1.266,1.548.985-1.182h8.105l-2.645,5.291,4.417,4.193v-7.824l7.4-1.155v1.351l8.7,4.785v-3.012l6.952-3.434-.591,4.221,2.926-3.827H176.7l7.43,4.025-9.175,2.139h10.356v4.868l-4.784,6.445H170.251l-3.01-4.672-.7,5.656-6.923-5.262-.506,4.588h-6.445l-.084-1.069h-7.121v-3.631l-3.151,3.518-4.475-4.193v3.04l-5.966,1.153-1.069-2.616-.592,1.35-11.622.986-.676-.789-7.148.789-2.139-4.193h-1.07l-3.237,4.784H97.278l-1.154,1.069-4.7-5.966-6.444,4L78.929-179.17l7.119-4.39,1.774,7.429,1.857-2.195-1.267-5.235c-.45-1.1-1.378-1.21-2.758-.394l-6.726,4.109a1.73,1.73,0,0,0-.591,2.449l5.769,13c.957,1.407,2.026,1.745,3.208.957l4.5-3.012,3.125,3.912-23.134,1.828a1.539,1.539,0,0,0-1.576,1.1l-.281,13.283L59.877-162.06h16.21a2.335,2.335,0,0,0,2.251-2.053V-168.7c-.085-1.436-.732-2.224-1.857-2.337H73.16v-1.492h2.73c1.323.056,1.913-.759,1.773-2.42v-4.5c.084-1.689-.591-2.392-2.054-2.055l-13.4,1.774v-2.843c.2-1.828-.535-2.533-2.139-2.138l-7.824,1.745a1.512,1.512,0,0,0-1.238,1.378l-6.473-.393a1.6,1.6,0,0,0-1.942,1.069l-18.771,1.576c-1.6.2-1.857,1.126-.675,2.815l3.321,4.587a2.764,2.764,0,0,0,2.336,1.069l2.645-.281-.873,6.444-4.39-.393q-1.9-.254-1.857,1.857l-2.927,60.957c.056,1.435,1.014,2,2.815,1.66l27.354-2.645a7.452,7.452,0,0,0,3.518-1.548l14.155-9.765v7.036c.056,2,.928,3.264,2.561,3.687l37.6.394c2.224.141,3.208-.619,2.927-2.223l-.281-2.167,5.6,2.927c1.857.957,3.208.873,3.967-.281l8.893-17.871,2.533-.394.787,15.141a2.628,2.628,0,0,0,2.533,1.942l15.816-1.549v4.588c.225,1.1,1.266,1.491,3.124,1.153l23.246-2.42a5.353,5.353,0,0,0,2.842-.788l15.535-10.751a2.937,2.937,0,0,0,1.659-2.645v-17.955ZM75.1-175.146l-4.587.479v4.109h5.178v5.572l-18.068,1.069V-165.1H51.772l.478-4.476H49.83v5.46h-6.36V-174.47l-3.039.479v9.287l-8.978-.084,1.266-9.09-5.46.59-3.827-5.178,20.122-1.577v-1.349l6.445.674v4.587l1.857-.281v-5.572l7.74-1.774-.394,4.982,15.9-1.943v5.572Zm33.743,8.725,1.52,2.786-3.377.252Zm46.941,7.682,28.93,2.645,11.314,18.151-.085,18.968-17.083,11.623-25.694,2.533v-5.966l-18.574,1.858-.478-17.476-5.769.957-9.175,18.968L109.1-111.572l.9,5.488H72.963c-1.886-.084-2.842-.928-2.927-2.561v-9.962L51.49-105.887l-29.324,2.926,3.123-61.547,32.645,2.927,12.89,19.531v-17.56l41.4-3.237-3.011,15.45-22.289,1.069.985,6.642,18.18-.2v11.116l-19.531,2.054-1.773,7.233,22.851,1.576,11.82-46.013,16.913,1.463,17.477,46.6,1.941-42.888ZM90.242-140.474l-.562-3.6,19.811-.9a2.539,2.539,0,0,0,2.533-2.42l2.757-13.986a3.74,3.74,0,0,0-.111-1.661l3.827-.477L107.24-118.889l-19.615-1.069.957-4.391,17.307-1.66c1.6-.113,2.336-1.1,2.252-2.927l.478-9.4c-.056-1.52-.676-2.364-1.857-2.42l-16.52.281Zm53.47-36.05.844-.929v1.661l-.844-.732" transform="translate(-21.406 185.53)"/><g transform="translate(5.151 3.939)"><path class="c" d="M77.685-170.421v-2.14h-3.6l.562-1.857,7.908-.986v-1.857L68.792-175.4l-.281,10.554,14.549-.309V-167.5H74.167v-2.533l3.517-.394" transform="translate(-35.669 179.991)"/><path class="c" d="M40.006-173.911l4.109-.676v-1.941l-16.322,1.153,1.295,1.773L35.924-174l-1.66,9.371h5.741v-9.286" transform="translate(-27.792 179.849)"/><path class="c" d="M54.114-173.216,54-178.506l-3.321-.281v13.565h2.955l-.2-5.178h6.051v4.5H62.5l.985-14.747-4.193.957v5.881l-5.178.591" transform="translate(-32.22 180.646)"/><path class="c" d="M215.358-147.758l-25.975-2.253-2.448,49.9,22.963-2.138,16.21-10.835v-17.786l-10.751-16.884ZM198.67-136.53l8.78-1.576,2.647,21.7L196.5-111.54l2.166-24.99" transform="translate(-58.578 174.72)"/></g><path class="b" d="M208.663-132.808l-5.656,1.069-1.661,21.107,2.617-.957,1.379-17.7,2.448-.507,2.279,15.929,1.041-.394-2.448-18.546" transform="translate(-56.215 175.331)"/><path class="c" d="M156.975-105.436l17-1.661-17.955-48.151-14.578-1.182-11.9,47.871L139.3-103.3l8.892-18.067,8.387-1.266.393,17.195Zm-12.213-24.625,5.375-16.322,5.572,17-10.947-.676" transform="translate(-42.324 179.9)"/><path class="b" d="M154.292-136.681l-2.843,8.779,6.052.479-3.208-9.258Zm.112,8.3.648-2.28.957,2.28H154.4" transform="translate(-46.562 176.08)"/><path class="c" d="M98.111-131.926,96.648-142.17l23.246-1.07,2.167-12.213-37.232,3.012-1.069,50.514h36.332l-1.266-8.5-24.118-1.66,2.251-10.666,19.334-1.548v-8.3l-18.18.676" transform="translate(-33.468 179.711)"/><path class="c" d="M57.3-154.453l-29.888-2.815-2.617,57.72,26.848-2.645L69.9-114.6v-20.6L57.3-154.453ZM38.159-141.564l9.963-1.745,2.926,25.018-15.422,5.46,2.533-28.733" transform="translate(-22.061 180.062)"/><path class="b" d="M49.618-137.414l-6.754,1.266-2.337,25.018,11.82-4.5-2.729-21.782Zm-4.5,3.6,4.193-.675,2.166,18.546-8.3,2.955,1.942-20.826" transform="translate(-25.105 176.222)"/><g transform="translate(59.381 4.221)"><path class="c" d="M198.2-177.505l-3.011,1.464-.394,4.9-8.7-5.375v12.1h3.6v-5.656l7.232,5.178,1.267-12.608" transform="translate(-112.646 179.756)"/><path class="c" d="M210.466-172.535l-.675,2.729h3.6l-1.744,1.379h-2.843l-1.745-2.841.759-3.912,6.642-1.661-2.73-1.745h-4.474l-3.124,4-.59,5.375,3.01,4.587h7.908l4.306-5.065v-2.841h-8.3" transform="translate(-116.021 179.965)"/><path class="c" d="M159.029-179.911l-2.73,1.349,2.646,12.5,3.012-.563V-172.4l6.248,6.05,3.039-2.842-6.163-6.135,2.167-4.221h-4.5l-1.351,3.517-2.365-3.882" transform="translate(-106.881 180.221)"/><path class="c" d="M181.306-178.341l-3.827.957v11.932H181.5l-.2-12.889" transform="translate(-110.979 179.918)"/><path class="c" d="M118.668-179.132h-4.587l-3.321,5.093-3.63-4.193-5.768,7.008-2.027-8.584-4.305,2.336L99.813-167l6.247-4.108,4.306,5.852,8.3-13.874" transform="translate(-95.029 180.202)"/><path class="c" d="M125-170.418l3.321-.113,2.054,4.39,5.966-.675-8.3-13.48L116.7-165.24h5.375L125-170.418Zm2.533-4.588,2.842,2.223h-4l1.154-2.223" transform="translate(-99.221 180.296)"/><path class="c" d="M147.294-178.9l-4.672-.31.985,12.917,9.175-.507,1.464-2.645h-6.051l-.9-9.455" transform="translate(-104.236 180.087)"/></g><path class="b" d="M112.047-181.643c-.788-.817-1.52-.7-2.224.421l3.49,3.687,1.013-1.351-2.279-2.757" transform="translate(-38.51 184.881)"/></g></g></svg>