<svg xmlns="http://www.w3.org/2000/svg" width="96.289" height="85" viewBox="0 0 96.289 85"><defs><style>.a{fill:#fff;fill-rule:evenodd;}</style></defs><g transform="translate(-123.807 -34.121)"><path class="a" d="M330.548,38.943c.015,1.457,1.572,2.067,1.391,3.425a1.037,1.037,0,0,1-1.07.963c-1.271-.015-1.028-2.206-1.82-2.676-.808.512-2.133.507-2.89,1.07a9.57,9.57,0,0,1,.856,2.141c1,.039.42-1.506.963-1.927,2.4-.407,1.471,2.525,2.355,3.639.432-.175.373-.84.642-1.177,1.46-.168,1.779,1.248,2.14,2.569s.594,2.242-.749,2.676c-1.238.4-3.523.562-5.031.963a3.532,3.532,0,0,1-2.355.107c-.393-.178-.535-.607-.535-1.177.386-.506,1.211-.573,1.606-1.07-.712-2.035-1.109-4.385-1.82-6.422a3.368,3.368,0,0,1-1.605-.214,2.123,2.123,0,0,1-.107-1.177,21.6,21.6,0,0,1,8.027-1.713Zm-2.676,8.991c.989.2,1.962-.437,3-.535.023-.558-.055-1.015-.428-1.177.114.934-.589,1.053-1.5.963-.489-.367-.638-1.074-1.284-1.284C327.455,46.765,327.959,47.127,327.872,47.933Z" transform="translate(-166.538 -4.042)"/><path class="a" d="M484.476,42.906c-.038,1.035-.9,1.982-.856,3.211-1.123.509-1.817-1.214-1.07-1.926-2.47-3.378-5.6,1.661-4.6,5.352.491.714,2.541.951,2.783-.107a1.39,1.39,0,0,1-.535-1.712c1.6-.479,4.258-.316,4.281,1.712a1.175,1.175,0,0,1-1.5.107c-.915.8-.34,3.085-1.82,3.318-1.131-.745-2.709.04-3.853-.749a5.14,5.14,0,0,1-1.819-4.281c.378-3.975,3.926-9.146,7.92-5.137A1.715,1.715,0,0,1,484.476,42.906Z" transform="translate(-294.778 -5.971)"/><path class="a" d="M260.506,55.488a3.412,3.412,0,0,1,.535,1.177c-.24.367-.806.407-1.177.642.272,3.513,1.846,6.284,1.605,9.954-1.2.794-2.071-.687-2.783-1.5-1.549-1.766-3.252-4.086-4.5-5.673a2.855,2.855,0,0,1-1.819-.107c-.44-2.16,2.673-2.778,4.067-2.462.325-.175.224-.775.428-1.07a20.042,20.042,0,0,1,3.639-.963Zm-2.355,5.031c-.119-.512.333-.452.214-.963-.373-1.553-1.136-1.158-2.355-.642.629,1.583,1.85,2.574,2.89,3.746A4.7,4.7,0,0,0,258.151,60.519Z" transform="translate(-107.734 -17.911)"/><path class="a" d="M531.408,64.541c-.451-.976-2-.857-2.89-1.391-.311.665-1.015,1.465-.749,2.355.881-.36,2.57-2,2.676,0,.051.958-1.834,3.34-2.248,4.067-.644.038-1.226.013-1.5-.321.051-.619.227-1.266-.107-1.713a5.539,5.539,0,0,0-1.07,1.713c.864.421,1.784.785,2.676,1.177.6-.708.8-2.348,2.034-2.141,1.538.257.252,3.135-.321,4.067-.939,1.528-1.633.842-3.1.107-.918-.459-1.934-.737-3.1-1.285-1.118-.523-3.275-1.4-2.141-2.89a4.242,4.242,0,0,1,1.927,0c1.41-1.623,2.1-3.963,3.211-5.887-1.668-.673-1.29-2.741,1.07-1.927.453.156,1.044.737,2.034,1.177,1.452.646,3.446,1.34,3.639,2.248a6.865,6.865,0,0,1-.749,2.783c-.34.658-1.929,1.551-2.141.107C530.477,66.274,531.144,65.45,531.408,64.541Z" transform="translate(-333.148 -21.934)"/><path class="a" d="M459.595,81.125c.062.224.265.305.214.642a.811.811,0,0,1-.749.214C458.787,81.6,458.964,80.937,459.595,81.125Z" transform="translate(-280.921 -39.374)"/><path class="a" d="M458.664,88.572h.535a.751.751,0,0,1,0,.642h-.535A.752.752,0,0,1,458.664,88.572Z" transform="translate(-280.632 -45.644)"/><path class="a" d="M226.035,98.317c.812,2.048-4.827,5.035-3.211,1.391a2.177,2.177,0,0,0-.642-.642,4.285,4.285,0,0,0-1.82,1.284c.081.883,1.466.46,1.927.963-.052,1.144-1.512,3.424-3.211,3-1.592-.4-.1-1.615,0-2.355.111-.862-.759-2.365-1.177-3.532-.5-1.39-.939-2.669-1.284-3.425-.361-.791-1.288-2.512.535-2.462a1.887,1.887,0,0,1,.856.428c1.029.861,2.119,2.15,3.211,3.1s2.107,1.438,3.1,2.248c.718.078,1.2-.487,1.713,0Zm-6.208-.428c.138-.219.6-.113.642-.428-.4-.133-.83-.807-1.177-.642C219.589,97.057,219.409,97.771,219.827,97.889Z" transform="translate(-77.33 -48.967)"/><path class="a" d="M584.806,106.224c.335,1.089-.679,1.646-1.391,2.034.017.338,0,.646-.214.749-1.381,1.152-1.967,3.1-3.318,4.281.355.715,1.215.926,2.355.856.425.036.336-.5.749-.749.137-.082.494,0,.642-.107a11.124,11.124,0,0,0,1.391-1.5,4.5,4.5,0,0,0,1.07-1.712c.038-.543-.538-.8-.321-1.391.433-1,1.592-.076,1.712.535a7.663,7.663,0,0,1-2.569,5.566c-.994.9-3.1,2.109-4.5,1.82-.8-.167-1.982-1.559-2.676-2.248-.455-.451-2.236-1.781-2.248-2.569-.024-1.638,2.223-.7,2.676.107,1.285-.625,2.131-2.748,3.425-3.96.341-.319.788-.37,1.07-.642C583.207,106.772,583.4,105.624,584.806,106.224Z" transform="translate(-378.625 -60.298)"/><path class="a" d="M632.936,117.153c.049.335-.229.342-.535.321v-.321A.4.4,0,0,1,632.936,117.153Z" transform="translate(-426.327 -69.515)"/><path class="a" d="M377.279,183.856c-1.3,1.091-3.439,1.342-4.923,2.248A9.717,9.717,0,0,1,377.279,183.856Z" transform="translate(-208.345 -125.515)"/><path class="a" d="M403.5,188.488c-.67.119-1.4,1.184-2.034.642C401.78,188.548,402.762,188.638,403.5,188.488Z" transform="translate(-232.75 -129.398)"/><path class="a" d="M397.586,193.244a.8.8,0,0,1-.749.535C396.825,193.355,397.206,192.942,397.586,193.244Z" transform="translate(-228.866 -133.298)"/><path class="a" d="M346.661,201.722c-.522,1.146-1.911,1.984-2.569,3.425-.393.861-.419,1.864-.856,2.783A7.4,7.4,0,0,1,346.661,201.722Z" transform="translate(-183.934 -140.491)"/><path class="a" d="M205.353,223.344A18.047,18.047,0,0,0,200,231.05c-.108-1.149.944-2.016.428-2.89.408.087.414-.228.535-.428-.375-1-1.642-.809-2.462-.321.149.4.784-.081.963.428-.358-.106-1.2.272-1.07-.321a9.139,9.139,0,0,0-1.391.749c-.087.37.2.452,0,.642a1.478,1.478,0,0,0-1.391,1.177c-.762.13-1.092.692-1.391,1.284-.256-.872,1.4-1.661,1.606-2.783a17.1,17.1,0,0,1,6.315-4.281C203.339,223.807,204.211,223.127,205.353,223.344Z" transform="translate(-59.002 -158.581)"/><path class="a" d="M350.7,230.174a.512.512,0,0,1,.321.642c1.031.544,1.476,2.689.428,3.532a1.8,1.8,0,0,0-1.5,1.712c-.138-.255-.48-.305-.749-.428a10.7,10.7,0,0,1,.428-4.923C350.277,230.823,350.357,230.368,350.7,230.174Z" transform="translate(-188.829 -164.341)"/><path class="a" d="M630.678,232.821c-.21.392-.35.157-.107.642a4.142,4.142,0,0,0-1.284,1.07,2.656,2.656,0,0,0-.856-.535C628.74,232.941,629.79,233.285,630.678,232.821Z" transform="translate(-422.998 -166.56)"/><path class="a" d="M378.208,241.321c.3-.088.277.151.535.107-.16.126-.126.445-.428.428C378.359,241.6,378.12,241.623,378.208,241.321Z" transform="translate(-213.235 -173.668)"/><path class="a" d="M170.393,244.7c-.183.245-.817.039-1.177.107C169.323,244.285,170.034,244.783,170.393,244.7Z" transform="translate(-38.064 -176.404)"/><path class="a" d="M655.508,244.732c.03.28-.039.46-.321.428C654.993,244.977,655.219,244.739,655.508,244.732Z" transform="translate(-445.366 -176.544)"/><path class="a" d="M364.462,260.608c.266-.017.331.168.535.214v.749C364.342,261.753,364.211,260.991,364.462,260.608Z" transform="translate(-201.628 -189.851)"/><path class="a" d="M189.988,267.229c.282.22-.22.558-.214.856C189.425,267.8,189.954,267.487,189.988,267.229Z" transform="translate(-55.198 -195.402)"/><path class="a" d="M362.43,267.891c1.7.834-.287,3.974,1.5,5.031a3.482,3.482,0,0,1,2.141.321c.606.107.678-.321,1.284-.214.338.648-.94,1.19-1.5.642a3.483,3.483,0,0,1-2.783-.642C362.218,271.712,362.587,269.2,362.43,267.891Z" transform="translate(-200.025 -195.957)"/><path class="a" d="M305.525,271.172c.449-.056.424.361.535.642C305.692,271.79,305.594,271.5,305.525,271.172Z" transform="translate(-152.325 -198.703)"/><path class="a" d="M228.313,271.861c.334.411-.3.766-.214,1.284A1.122,1.122,0,0,1,228.313,271.861Z" transform="translate(-87.314 -199.285)"/><path class="a" d="M305.525,276.44c.224-.045.283.073.428.107-.026.188-.184.244-.428.214Z" transform="translate(-152.325 -203.115)"/><path class="a" d="M315.985,281.125c.034.348-.288.57-.535.321C315.524,281.235,315.736,281.161,315.985,281.125Z" transform="translate(-160.644 -207.05)"/><path class="a" d="M507.984,285.061c.28-.03.46.039.428.321C508.132,285.412,507.951,285.343,507.984,285.061Z" transform="translate(-322.032 -210.344)"/><path class="a" d="M514.77,285.757h.321c-.149.863.445,1.851-.321,2.141C514.889,287.074,514.5,286.4,514.77,285.757Z" transform="translate(-327.64 -210.933)"/><path class="a" d="M461.139,286.306c.4-.114.305.266.642.214,0,.6-.016,1.2-.428,1.391-.277,1.526,1.265,1.232,1.713,2.034a2.135,2.135,0,0,1,.856-.428c.251.457-.414.467-.214,1.177-1.33.043-3.182,3.15-4.388.749-.145.033-.089.268-.107.428a3.505,3.505,0,0,1-1.5-1.5c.824-.208,1.4-1.129,2.355-.856v.535a1.19,1.19,0,0,1,.856-.214c.064.341-.2.331,0,.535h.428c.159-.091.155-.345.214-.535-.045-.24-.568,0-.642-.214-.073-.657-.318-1.028-.107-1.712h.428C460.734,287.622,460.977,286.812,461.139,286.306Z" transform="translate(-279.896 -211.375)"/><path class="a" d="M322.056,287.08a3.622,3.622,0,0,1,0,2.462A3.076,3.076,0,0,1,322.056,287.08Z" transform="translate(-165.966 -212.042)"/><path class="a" d="M326.627,288.33c.137.33-.42.757-.535,1.177C325.839,289.108,325.986,288.192,326.627,288.33Z" transform="translate(-169.467 -213.078)"/><path class="a" d="M393.325,289.065c.522.678-.8,1.232-1.177,1.712.019.3.509.133.428.535-.381.69-1.225.916-2.355.856.259-.526,1.074-.5,1.5-.856-.045-.24-.568,0-.642-.214C391.238,289.832,392.934,290.1,393.325,289.065Z" transform="translate(-223.321 -213.706)"/><path class="a" d="M371.441,290.738c.014-.192-.131-.226-.107-.428.156.165.548.094.856.107.016.3-.262.309-.535.321.288.141.384.472.642.642a1.3,1.3,0,0,1-1.926-.963C370.82,290.073,371.192,290.546,371.441,290.738Z" transform="translate(-206.682 -214.737)"/><path class="a" d="M611.888,291.835c.265-.361.4.308.321.642C611.926,292.44,612.112,291.932,611.888,291.835Z" transform="translate(-409.132 -215.941)"/><path class="a" d="M349.75,293.006c.335-.049.342.229.321.535A.386.386,0,0,1,349.75,293.006Z" transform="translate(-189.379 -217.005)"/><path class="a" d="M390.221,293.644c.224-.045.283.073.428.107-.093.157-.16.339-.428.321Z" transform="translate(-223.321 -217.536)"/><path class="a" d="M440.5,293.7c.159.2.553.16.535.535C440.723,294.514,440.476,294.081,440.5,293.7Z" transform="translate(-265.466 -217.589)"/><path class="a" d="M461.514,294.692c-.16.17-.61.156-.535-.214C461.139,294.308,461.589,294.321,461.514,294.692Z" transform="translate(-282.626 -218.155)"/><path class="a" d="M274.425,295.02a10.408,10.408,0,0,1,.214,3.1A12.159,12.159,0,0,1,274.425,295.02Z" transform="translate(-126.255 -218.698)"/><path class="a" d="M384.351,296.838c-.24.208-.769.057-.749-.321C383.842,296.308,384.371,296.46,384.351,296.838Z" transform="translate(-217.772 -219.874)"/><path class="a" d="M453.062,296.421c-.15.265-.369.189-.642.107C452.422,296.235,452.925,296.274,453.062,296.421Z" transform="translate(-275.459 -219.778)"/><path class="a" d="M350.962,305.607c.783,1.887-1.857,1.933-1.391.321A13.04,13.04,0,0,1,350.962,305.607Z" transform="translate(-189.199 -227.572)"/><path class="a" d="M340.589,307.593a3.148,3.148,0,0,1,.856,1.284C341.083,308.526,340.559,308.336,340.589,307.593Z" transform="translate(-181.716 -229.237)"/><path class="a" d="M363.612,307.81v.642c-.643.249-1.559.225-1.819.856-.242-.08-.042-.6-.107-.856C362.3,308.269,362.812,307.463,363.612,307.81Z" transform="translate(-199.387 -229.347)"/><path class="a" d="M483.841,324.8c.1.047.191.094.214.214-.037.284-.281.361-.535.428C483.522,325.119,483.8,325.074,483.841,324.8Z" transform="translate(-301.528 -243.657)"/><path class="a" d="M427.918,332.737c.062.383-.317.325-.642.321C427.338,332.8,427.68,332.82,427.918,332.737Z" transform="translate(-254.382 -250.314)"/><path class="a" d="M466.978,333.355c0-.163.793-.234.642.107A.909.909,0,0,1,466.978,333.355Z" transform="translate(-287.662 -250.718)"/><path class="a" d="M423.718,336.045c-.168.154-.084.558-.428.535C423.262,336.231,423.417,336.065,423.718,336.045Z" transform="translate(-251.038 -253.087)"/><path class="a" d="M366.134,339.354h.321c-.015,1.14-.132,1.515-.214,2.569A3.687,3.687,0,0,1,366.134,339.354Z" transform="translate(-202.98 -255.86)"/><path class="a" d="M359.371,341.339a8.913,8.913,0,0,1,.642,5.245c-.726.448-1.258-1.185-.428-1.391A10.124,10.124,0,0,1,359.371,341.339Z" transform="translate(-197.287 -257.524)"/><path class="a" d="M427.112,347.294c.125.017.09.2.107.321-.327-.077-.39.109-.642.107C426.5,347.326,427.034,347.537,427.112,347.294Z" transform="translate(-253.79 -262.516)"/><path class="a" d="M416.008,351.264c.19.1-.251.937-.107,1.5a3.778,3.778,0,0,1-.535-.963C415.721,351.762,415.83,351.479,416.008,351.264Z" transform="translate(-244.398 -265.844)"/><path class="a" d="M447.141,353.218c.031.638-.074,1.139-.749,1.07C446.326,353.617,446.47,353.153,447.141,353.218Z" transform="translate(-270.393 -267.477)"/><path class="a" d="M407.38,354.548c.141.6-.424.5-.428.963-.306-.015-.2-.446-.214-.749C407.138,354.876,407.043,354.5,407.38,354.548Z" transform="translate(-237.162 -268.592)"/><path class="a" d="M440.049,355.429c-.029.363.083.868-.107,1.07-.252,0-.315.184-.642.107C439.021,355.988,439.3,355.043,440.049,355.429Z" transform="translate(-264.372 -269.26)"/><path class="a" d="M369.7,360.528c.644.52,1.916,2.006.856,2.89C369.632,363.1,369.706,361.775,369.7,360.528Z" transform="translate(-206.122 -273.609)"/><path class="a" d="M171.851,375.734c-.767-.784.166-1.557.535-2.141.038-1.092-.982-2.925-2.248-2.676-1.108.218-.473,2.023-.321,2.462a11.94,11.94,0,0,1,.963,2.462,3.638,3.638,0,0,1-4.709,3.425c-1.491-.505-1.96-2.047-2.462-3.639-.2-.3-.84-.159-.963-.535a2.569,2.569,0,0,1,.107-1.819c.566-.406,1.036-.3,1.605-.642.645-.384.593-1.051,1.391-.963,1.8.2-.057,2.87-.107,3.318-.277,2.495,3.217,2.829,3.211.749,0-.7-.929-1.152-1.284-2.034-1.093-2.709.641-5.954,3.853-4.923a4.993,4.993,0,0,1,2.676,3.96C175.644,374.042,173.45,375.983,171.851,375.734Z" transform="translate(-32.457 -280.36)"/><path class="a" d="M382.333,371.115c.3-.007.2.55-.107.535A.7.7,0,0,1,382.333,371.115Z" transform="translate(-216.61 -282.484)"/><path class="a" d="M388.272,371.96c.093.478-.482.642-.749.428C387.43,371.91,388,371.745,388.272,371.96Z" transform="translate(-221.051 -283.115)"/><path class="a" d="M360.107,376.66c-.644-.142-1.308-.911-.749-1.605C360.2,374.957,360.6,376.1,360.107,376.66Z" transform="translate(-197.274 -285.781)"/><path class="a" d="M393.277,375.315c-.029.363.083.868-.107,1.07a1.374,1.374,0,0,1-.963-.321c.185-.319-.035-.543.107-.749C392.763,375.329,392.912,375.12,393.277,375.315Z" transform="translate(-224.985 -285.935)"/><path class="a" d="M426.895,377.329a1.529,1.529,0,0,1-.535.856.553.553,0,0,1-.428-.642C426.215,377.441,426.611,377.1,426.895,377.329Z" transform="translate(-253.251 -287.627)"/><path class="a" d="M433.869,377.732h.535c-.01.418-.077.779-.428.856C433.811,378.433,433.882,378.04,433.869,377.732Z" transform="translate(-259.905 -288.031)"/><path class="a" d="M611.725,396.051a9.307,9.307,0,0,1,1.07-2.034c-1.36-1.6-3.468-2.454-4.709-4.174-.446-.054-.624-.374-1.07-.428-.13-.619-.672-.826-.535-1.712,2.054-.248,3.036,1.443,4.281,2.355,1.472.348,2.3,1.34,3.425,2.034.767-.612,1.4-2.774-.107-3,0-.284.04-.611-.107-.749-1.171-.6-2.059-1.984-3.639-2.034-.557-.017-1.043.467-1.605,0a1.549,1.549,0,0,1,0-1.177c3.241-1.794,7.413,1.78,8.456,4.067a5.277,5.277,0,0,1,.107,2.248,19.757,19.757,0,0,1-2.248,2.783C614.141,395.34,613,397.994,611.725,396.051Z" transform="translate(-404.581 -293.826)"/><path class="a" d="M448.285,392.951c-.235.836-.974,1.166-1.82,1.391A1.969,1.969,0,0,1,448.285,392.951Z" transform="translate(-270.467 -300.788)"/><path class="a" d="M395.948,400.891a2.578,2.578,0,0,1,0,1.605C395.136,402.348,394.945,401,395.948,400.891Z" transform="translate(-227.55 -307.444)"/><path class="a" d="M211.008,411.41c-.816,1.151-1.121,3.369-3.1,3-.68-1.24.471-2.34,1.07-3-.613-1.029-2.061-1.221-2.676-2.248a14.136,14.136,0,0,0-1.605,1.82c.626,1.017,1.482-.2,2.355-.214,1.8,1.224-1.791,4.788-2.676,4.816-1.222.038-1.352-1.505-.642-2.569-.759-.272-1.226.612-1.712.963.246.474,1.559,2.235,2.248,2.248.96.017,1.144-2.044,2.569-1.284,1.246.971.11,1.909-.535,2.676-.591.7-1.1,2.116-2.462,1.605-.432-.162-1.268-1.518-1.82-2.034-.843-.788-1.889-1.913-2.462-2.355-.9-.692-2.791-1.773-1.177-3,.725-.1.905.631,1.5.642.8.015,1.117-.819,1.819-1.606.331-.37.961-.611,1.284-.963a22.578,22.578,0,0,1,1.605-2.034c-.3-.56-.955-1.2-.535-2.141,1.2-.45,2.4.968,3.318,1.82A23.479,23.479,0,0,1,211.008,411.41Z" transform="translate(-61.982 -311.434)"/><path class="a" d="M557.7,431.979c.326,1.026-.549,1.666-.428,2.462a11.45,11.45,0,0,0,1.927,2.462c.792.808,1.8,1.4,2.355,2.034a1.852,1.852,0,0,0,1.391-1.07,5.138,5.138,0,0,0-1.177-1.712c-.029-.88.145-1.469.642-1.606,1.142-.314,1.582,1.285,2.14,1.927.373.428,1.364.81,1.391,1.391.051,1.059-2.729,2.629-3.639,3.532-.714.709-1.446,2.518-2.462,2.569a1.2,1.2,0,0,1-1.284-1.177c-.049-.561.611-1.235.642-1.712.054-.837-.343-1.215-1.07-1.713-.466-1.639-1.623-2.587-2.676-3.639-.777.342-2.334,1.2-2.462-.214C552.882,434.357,556.365,431.891,557.7,431.979Z" transform="translate(-359.756 -333.501)"/><path class="a" d="M279.276,444.287c.393-.071.814-.114,1.177-.214a26.2,26.2,0,0,1,2.89,2.141c.088.837-.2,1.295-.749,1.5-.576.041-.517-.553-1.07-.535a19.842,19.842,0,0,0-3.211,3.318c-1.046,1.168-2.394,3.278-4.388,3-.922-1.45.21-3.443.642-5.459a18.913,18.913,0,0,1,1.284-4.067c-.467-.529-1.816-1.914-.428-2.355,1.449-.46,3.4,1.906,3.853,2.676Zm-2.783,4.816c.536-.072,1.026-1.114,1.284-1.819.709-.29,1.441-.557,1.605-1.391-.434-.493-1.228-.627-1.712-1.07C277.259,446.23,276.888,447.679,276.493,449.1Z" transform="translate(-125.54 -341.528)"/><path class="a" d="M518.439,458.381c3.019-.279,5.784,3.4,5.994,6.422a7.915,7.915,0,0,1-.321,3.318c-.467,1.046-2.656,2.025-3.96,1.82a6.442,6.442,0,0,1-2.462-1.5,10.035,10.035,0,0,1-2.141-3.318c-.922-2.953.092-6.485,2.89-6.743Zm3.746,5.352a8.663,8.663,0,0,0-2.248-2.89c-1.662-.8-2.4.5-2.462,1.82-.082,1.8,1.449,3.205,2.034,3.96,1.007.044,1.838.851,2.569,0A5.288,5.288,0,0,0,522.185,463.732Z" transform="translate(-328.098 -355.621)"/><path class="a" d="M330.3,474.018c-.487,1.618.4,4.612-2.034,4.281-.8-.723-.2-2.247,0-3.211-.674-.727-2.061-.2-3-.749a5.833,5.833,0,0,0-.749,2.462c1.562.187.926-1.414,2.248-1.284,1.945.191,0,3.119,0,4.5.248-.118.96-1.118,1.82-.642.674,1.257.087,4.859-1.07,5.138-.857.206-2.419-.576-3.746-.963-1.861-.543-3.4-.945-4.388-1.819,0-.569-.067-1.209.214-1.5.706-.135.857.285,1.5.214,1.135-.685.533-3.106,1.5-3.96-.148-1.183.406-1.663.642-2.462-.709-.478-2.2-1.24-1.177-2.462,1.147-.5,2.127.359,3.1.642,1.852.537,3.938.517,5.137,1.82Zm-6.85,6.957c.975.238,1.865.56,2.89.749.2-.228.509-.913.214-1.285a1.08,1.08,0,0,1-1.606.428c-.161-.767-.2-1.657-.856-1.927C323.961,479.7,323.415,480.044,323.455,480.975Z" transform="translate(-163.94 -366.549)"/><path class="a" d="M457.372,478.126c-1.217-.111-2.126.086-2.569.749a20.614,20.614,0,0,1,.428,2.141c.623-.362.2-.638.214-1.391.414-.336.7-.8,1.605-.642.749.806,2.488,5.415.642,5.78-1.075.213-1.31-.7-1.606-1.5a4.133,4.133,0,0,0,.535,2.569c.752.033,1.718-.148,2.034.321-.249,2.113-3.142,2.49-5.673,2.676-1.868-1.016.111-2.083,1.177-2.569-.831-1.987-.951-4.686-1.712-6.743-.971-.221-1.157.342-1.82.428-1.32-1.619-.307-2.047,1.5-2.569,1.906-.551,4.579-1.35,6.743-1.177.8.54,2.328,4.638.428,4.709C458.05,480.956,457.965,478.767,457.372,478.126Z" transform="translate(-273.454 -370.55)"/><path class="a" d="M390.841,485.773c.169,2.9,1.858,4.278,2.355,6.85a6.532,6.532,0,0,0-.321-3.1c.529-.64-.184-1.4.321-2.141-.417-.643-1.563-.484-1.605-1.284-.088-1.669,6.246-1.692,4.5.749-.241.188-.805.051-1.07.214a44.635,44.635,0,0,0,.107,6.743c.583.452.609,1.461,1.606,1.5a.861.861,0,0,1-.642.963c-.307-.014-.508-.134-.428-.535-.476,1-1.477,1.366-3,1.07-.211-.182-.457-.328-.535-.642-.68,1.308-4.97.95-5.887-.107-.063-1.169,1.173-1.039,1.927-1.391v-7.278c-.4-.6-1.294-.7-1.712-1.284.324-1.841,3.346-1.033,4.388-.321Zm-.642,6.1c.071.928-.6,2.5.321,2.783,1.045-.993.113-3.255-.428-4.281C389.817,490.753,390.167,491.452,390.2,491.874Z" transform="translate(-219.981 -377.876)"/><path class="a" d="M447.735,533.857c0,.252.184.315.107.642a.46.46,0,1,1-.107-.642Z" transform="translate(-270.988 -418.896)"/><path class="a" d="M446.548,541.831h.321c.148.138.106.465.107.749h-.535C446.442,542.3,446.4,541.969,446.548,541.831Z" transform="translate(-270.443 -425.586)"/><path class="a" d="M140.892,218.892c-.272-.4-.058.574-.428.428-.083-.69.159-1.054.107-1.713a2.741,2.741,0,0,0-.321,1.284,6.115,6.115,0,0,0-4.816-1.82c-.486.066-.8.447-1.284.321-1-1.139-1.862-2.419-3.639-2.783-2.226-.117-3.595,1.155-5.245,1.927.515-1.733,2.37-2.126,3.1-3.639.7-.15,1.01-.781,1.605-.749.145-.033.089-.268.107-.428,1.1.326,1.133-1.179,2.141-.963.561-1.283,2.035-.866,3.211-.428-.313-.329-.728-.556-.856-1.07.506-.357,1.238.119,1.5-.535.342.158.187.812.856.642-.06.261-.092.55-.428.535.422.355.561.969,1.392.642-.143.392-.544.527-.963.642a13.018,13.018,0,0,1-1.605,2.89c2.514-3.765,7.185-6.3,12.951-7.171a1.583,1.583,0,0,0,.321-1.07,17.772,17.772,0,0,0-6.1,0c-8.2,1.925-15.307,5.735-18.624,12.309-.266-.343.352-.714.214-1.284a37.386,37.386,0,0,0,2.141-3.318c4.167-4.691,11.134-8.169,19.052-8.67a9.816,9.816,0,0,1,5.245.856c-.212.61-1.353.595-1.391,1.391-.028.569,2.02,2.752,2.676,3.318a30.053,30.053,0,0,0,3.532,2.676c.847.518,2.062.821,2.676,1.5-.741.406-1.958-.53-2.569-.963-2.891-1.319-4.822-3.6-6.957-5.673a66.514,66.514,0,0,0-.321,11.238c.378-.229.154-1.059.214-1.605.506.019-.038.423.107.749.427.07.307-.407.321-.749-.078-.395-.322.045-.535-.214.021-.8.14-1.5.214-2.248.5-.114-.216.4.321.321.359-.264-.233-.472-.321-.642.2-1.23,1.623-1.793,2.783-1.712.018.232-.38.049-.535.107-.025.454.668.189.642.642-.585.077-.209.451-.642.642.417.154.77.372,1.177.535-.012.2-.354.074-.321.321.234.34.713.16,1.177.107.22.1.091.551.428.535a1.691,1.691,0,0,1-.321.963c.508-.051.118.133.321.321.454.1.539-.175.642-.428.3.161.373.555.428.963.127.264.4-.219.535.107.513.038-.229.321-.214.535a3.227,3.227,0,0,1,.963,0,4.69,4.69,0,0,1,.214,1.5c-.531.1-.571-.285-.963-.321a10.192,10.192,0,0,0-4.816,2.462c-.522.57-.693,1.484-1.5,1.82v-.642c-.281-.032-.084.415-.428.321a60.574,60.574,0,0,1-.535-15.52,2.566,2.566,0,0,0-1.07.428c-2.017,1.575-4.423,5.862-5.351,9.1.091.187.3-.4.749-.214-.044-.206-.415-.084-.321-.428.563-1.28.715-2.327,2.034-2.783.052-.337-.329-.242-.214-.642.263-.41,1.1-.345.963-.856.415-.093.175.467.642.321.439-.086-.056-.441.214-.642.341-.018.788-.251,1.07,0-.165.192-.627.086-.642.428.3.391.525-.18.856-.107.807,3.3.778,6.462,1.177,10.489-1.31-2.149-3.167-5.881-6.743-4.067-.066-.1-.129-.192,0-.214Zm-9.74-7.385c.36-.068.994.138,1.177-.107-.36.084-1.071-.414-1.177.107Zm11.988-2.676a17.1,17.1,0,0,0-6.315,4.281c-.205,1.122-1.861,1.911-1.605,2.783.3-.593.629-1.155,1.391-1.285A1.478,1.478,0,0,1,138,213.434c.2-.19-.087-.272,0-.642a9.114,9.114,0,0,1,1.391-.749c-.129.593.712.215,1.07.321-.18-.509-.814-.028-.963-.428.82-.488,2.086-.684,2.462.321-.121.2-.127.516-.535.428.516.874-.536,1.741-.428,2.89a18.047,18.047,0,0,1,5.352-7.706c-1.142-.217-2.013.463-3.211.963Zm-8.562,6.957c-.006-.3.5-.636.214-.856-.035.258-.564.569-.214.856Zm6.208,1.177c-.086-.518.548-.873.214-1.284a1.122,1.122,0,0,0-.214,1.284Zm7.6,5.566a10.414,10.414,0,0,0-.214-3.1A12.159,12.159,0,0,0,148.384,222.531Z" transform="translate(0 -143.105)"/><path class="a" d="M647.62,267.692c.5-.243.7.728.856,1.177C648.147,268.946,648.014,267.907,647.62,267.692Z" transform="translate(-439.084 -195.758)"/><path class="a" d="M513.3,279.8c.1.239.456.495.214.749C513.224,280.294,513.405,280.234,513.3,279.8Z" transform="translate(-326.488 -205.94)"/><path class="a" d="M468.268,322.811c.428.072.534.465.642.856C468.825,323.675,468.191,323.32,468.268,322.811Z" transform="translate(-288.738 -241.993)"/><path class="a" d="M365.768,346.233c.049.593.8.486.856,1.07-1.418-.4-1.877-2.211-3.532-2.034.119-.345.589-.339,1.07-.321.184.387.557.584.856.856-.021-.381-.72-1.307-.642-1.82.108-.177.454-.116.642-.214a3.3,3.3,0,0,0,1.07,1.5c.066-.038.064-.913-.214-.963,0-.326.226-.416.321-.642.28-.056.364.621.642.214.04.339.165.982.642,1.177.255-.231-.3-.625,0-.963a23.794,23.794,0,0,0,3.425.535c-.108-.214-.473-.169-.428-.535-.441-.084-.2.512-.642.428a.954.954,0,0,1-.428-1.284c.125.017.19-.024.214-.107.445.375,1.372.269,2.034.428a1.567,1.567,0,0,1-.428,1.07c.372.01.739-.132,1.177.214.2-.358-.678-.424-.535-1.07a.952.952,0,0,1,1.177-.107v.642a4.366,4.366,0,0,0,2.676-.107c-.265-.127-.4-.388-.321-.856a.909.909,0,0,1,.642-.107c.189.179-.1.359,0,.749.685-.1,1.3-1.2,2.462-1.177.148.138.106.465.107.749,1.067-.966,1.063-3,1.712-4.388.511.333.028,1.235.107,1.82,1.031-.967.066-3.93,1.712-4.281.109,1.436-.737,2.825-.856,4.388.483.348.634,2.235-.642,2.141a.909.909,0,0,1-.107-.642,7.963,7.963,0,0,0-.642,1.606c.028-.119,1.118-.092,1.07-.642a.891.891,0,0,1,.321,1.5c-.764-.122-.955.329-1.605.321a3.866,3.866,0,0,0,.321-.749c-.328-.078-.315.185-.642.107a5.384,5.384,0,0,0-.107-.856,5.5,5.5,0,0,1-1.284,1.5c-1.4-.148-2.382.943-3.639,1.284.768.546,1.6-.577,2.569-.535.02.555-.659.412-.749.856-.094.344.278.222.321.428-1.066,1.085-2.67,2.452-4.709,1.605-.053-.517.383-.544.856-.535-.488-.9-1.492.551-2.248.428-.7-.114-1-1.014-.321-1.712.494-.03.577.351.749.642a2.111,2.111,0,0,1,2.676-1.07c-.466-.283-1.169-.329-1.606-.642-.067-.4.174-1.1-.214-1.177-.466.154-.005.638.107.856a1.187,1.187,0,0,1-1.284.642c-.249-.581.188-.97-.214-1.5a.6.6,0,0,1-.428.107c.306.33.548,1.333,0,1.605-.647-.244-.607-1.177-.749-1.927-.626-.055-.768.373-1.284.428.323.248.911.23,1.07.642-.419.723-1.129.2-1.82.107-.442.151-.176.346-.214.856C366.248,346.823,366.148,346.388,365.768,346.233Z" transform="translate(-200.58 -253.642)"/><path class="a" d="M406.175,40.895c.175-1.387-.089-3.065,0-4.281-.338-.554-1.322-.461-1.605-1.07.163-1.844,3.662-1.394,4.816-.749.148,1.075-.513,1.343-1.284,1.5-.526,2.1.156,4.207,0,6.315.128.586.811.616.749,1.391.142.18.716-.179.963.107-.04.5-.493.578-.856.749-.4.113-.21-.361-.428-.428-.488.358-.629.962-1.391,1.07a3.32,3.32,0,0,1-1.927-.535,7.622,7.622,0,0,1-5.78-.107,2.312,2.312,0,0,1,.107-.963,13.212,13.212,0,0,0,1.5-.535c.064-2.326.264-4.517.214-6.957-.417-.623-1.334-.385-1.391-1.177-.1-1.428,2.969-1.353,3.746-.428.532,2.358,1.86,3.92,2.569,6.1Zm-2.89,2.355h.428c.988-.832.221-2.581-.428-3.746A13.8,13.8,0,0,0,403.285,43.25Z" transform="translate(-231.033)"/><path class="a" d="M375.763,197.117c-.327-.077-.39.109-.642.107.231.2.741.115.963.321.045.383.285.571.214,1.07,1.027.629-.482,1.367-.321,2.141-.232.018-.049-.38-.107-.535-.473-.009-.3.63-.749.642-.461.033-.418-.438-.749-.535-.543.186-.124.5-.107.963-.207.4-.647.567-.749,1.07-.137.423.312.259.321.535a7.534,7.534,0,0,0-1.07,1.712c-.056-2.269,1.669-4.253,1.5-6.636-.05-.371.581-.061.642-.321.065-.422-.588-.126-.856-.214-.1-.226-.326-.316-.321-.642-1.27-.157-1.645-1.21-2.676-1.606.081.91,1.755.983,2.248,2.034-.646.393-1.123-.3-1.5-.535a1.809,1.809,0,0,1-1.927-1.07c-.476.636-2.258,1.12-2.89.321a2.433,2.433,0,0,0,.642-1.5c-.016-.234-.27-.23-.535-.214.8-1.977-1.262-3.212-.642-4.923.45.3.5,1,1.07,1.177.491,1.685.782,3.571,2.141,4.388.007-1.115-.587-1.863-.428-2.569a30.339,30.339,0,0,1,2.462,1.926c-.207-.827-.946-1.124-.749-2.355-.38.012-.389.4-.856.321.068-.667-.446-1.011-.535-1.712a10.639,10.639,0,0,1,.107-2.783c.4-1.758,2.349-2.334,3.532-3.211.345-.024.453.189.856.107-.411-.592.918-.24.963-.963,1.044.14,2.013.025,3.425.107-.7-.548-2.24-.257-2.248-1.5a2.218,2.218,0,0,1,.963.321c.314-.091-.139-.269,0-.535a9.072,9.072,0,0,1,7.171,2.248c2.237,1.922,3.886,4.253,3.853,7.278a4.491,4.491,0,0,1-.856,3.1c-.072-.844.482-1.692.321-2.569-.585.593-.68,1.675-1.177,2.355-.525.045-.408.111-.856,0-.107-1.141-.726-1.772-.642-3.1-1.17.936.818,2.6-.535,3.425.707,1.362-.216,1.977-.749,2.89-.7-.729-2.159-.695-3-1.284-1.189.166-1.836.876-3.1.963-.225.239.091.494-.214.749-.935.388-1.133-.567-1.605-.963Zm3.532-14.449c-.162-.131-.922-.21-1.07,0,.162.131.922.21,1.07,0Zm.535,1.5c0-.293-.715-.417-.856-.214.245.112.646.068.856.214Zm2.034.107c.358.355.5.45,1.177.321a.736.736,0,0,0-1.177-.321Zm2.034,1.284c-.059-.44-.4-.6-.963-.535-.009.509.729.27.963.535Zm2.355,2.141c-.191,0-.623-.288-.749,0l.469.205.28-.205Zm-5.566,6.743a4.518,4.518,0,0,0,1.606-.642c-.237-.562.215-.593.107-1.284-.421.721-1.6,1.251-1.713,1.926Zm-7.278.963c.771-.02,1.039,1.029,1.82.642a8.492,8.492,0,0,1-2.034-1.606c-.107-.392-.143-.856-.642-.856-.338.766,1.224,1.024.856,1.82Zm5.03-.535c-.08-.33.294-.206.214-.535-.482-.054-.364.492-.856.428-.082.24.494.341.107.535-.454-.341-1.5.083-1.712.642.814.139,1.1-.59,1.82-.214.245-.5.843-.656,1.284-.963C378.915,194.642,378.685,195.213,378.438,194.87Z" transform="translate(-203.296 -123.899)"/><path class="a" d="M644.5,242.085c.274.012.212.358.214.642-.278.115-.717.068-.856.321C643.52,242.6,644.237,242.291,644.5,242.085Z" transform="translate(-435.855 -174.325)"/><path class="a" d="M608.575,247.851c-.061.653-.616.811-1.177.963C607.014,247.9,607.8,247.412,608.575,247.851Z" transform="translate(-405.283 -179.021)"/><path class="a" d="M529.711,216.147c.449-1.352-1.458-1.695-1.712-3-.054-.381.669-.536.428-.749.424-.112.9-.171.963-.642.383.279.832-.172,1.177.107.091.341-.093.406-.214.535a4.079,4.079,0,0,0,1.177-.107c.422.644,2.414.639,2.355,1.713,1.4-.01,1.88.9,2.248,1.926H535.6c.069.386.513-.029.963.107.865.955,2.244,1.4,2.783,2.676-.932-.016-1.662-.972-2.569-1.177a5.27,5.27,0,0,0-5.245,1.5c-.062-.295-.266-.447-.321-.749-.6.507.551.888.321,1.712-1.42-1.945-2.2-4.3-3.96-5.887-.778-.7-1.773-.991-2.355-1.927-2.15-.811-3.451-2.471-6.1-2.783a22.263,22.263,0,0,1,5.352,9.74c.239-.046.043-.527.107-.749.414-.071.381,0,.642-.107-.046-.239-.528-.043-.749-.107a2.783,2.783,0,0,1,0-1.606c-2.044-1.476,2.205-3.578,2.569-1.391-.323.033-.832-.119-.856.214a4.9,4.9,0,0,0,1.606-.107c.072.392.43.5.535.856-.1.653-.918.58-1.284.963a9.87,9.87,0,0,1,2.783.214c.259.915,1.055,1.693.856,2.462-2.293-1.265-4.255.566-5.887,1.284.057-.414-.191-.522-.107-.963-.407-.157-.021.478-.428.321-.548-3.019-2.074-5.062-3.1-7.6-1.027-1.078-1.619-2.591-3.211-3.1-.586,3.669.166,9.306-.749,13.379.666-.234-.011-1.525.749-1.284a10.2,10.2,0,0,1,1.07-5.566,2,2,0,0,1,.856.107c-.281-.73-.811-.335-1.177,0-.11-.645.314-.756.321-1.284.764-.134,1.725-.982,2.141,0a2.283,2.283,0,0,1-1.5.642c.505.358,1.089-.121,1.5-.214.114.386.872.127.856.642-.169.509-.721.634-1.177.856.3.358.573-.2.963-.107a3.137,3.137,0,0,0,1.284.963c.05.333-.269.383-.428.214-.112.408.431.329.107.642-.381.166-.065-.363-.321-.321-.324.131.076.408.107.535.342-.014.819.106.749-.321.661.783.139,1.333.535,2.248-3.582-.7-5.249,2.1-6.636,4.281-.222-.027-.029-.47-.214-.535-.3.2-.136.863-.535.963-.075-.538.182-.746.107-1.284-.349.317-.3.748-.214,1.284-2.014-1.279-3.6-4.446-7.064-4.281.29-.483.172-.723.321-1.284.346-.132.082.346.428.214.42-.341-.712-.417-.321-.749.75-.121,1-.3,1.606-.428-.063-.4-.734-.194-.642-.749.792.007.75-.819,1.391-.963-.067-.254-.659.017-.749-.214a.489.489,0,0,1,.856-.214v-.428c.6-.13,1.019.347,1.391.107a3.4,3.4,0,0,0-1.284-.535,3.19,3.19,0,0,1,2.034-.749c.172-.144-.4-.455-.321-.856a1.8,1.8,0,0,1,2.248.428c-.03,1.367.819,3.788.107,5.566.653.6.176,2.131.214,3.1.653-4.488,1.057-9.623.214-13.7a30.3,30.3,0,0,1-6.636,5.352c-.965.544-1.792,1.2-2.783.856,2.654-1.471,7.039-4.13,8.884-6.422.935-1.162-.9-1.724-1.712-1.927a5.435,5.435,0,0,1,3.211-.856c7.739-.466,14.951,3.856,19.266,7.385,1.8,2.055,3.984,3.722,4.6,6.957a23.875,23.875,0,0,0-10.81-10.168c-3.99-1.923-8.742-4.216-14.021-3.211.1.219.219.423.321.642a17.53,17.53,0,0,1,9.526,4.5,6.966,6.966,0,0,1,3.1,3.211Zm-.214-2.676c.139-.253.578-.206.856-.321,0-.284.059-.63-.214-.642-.261.206-.978.516-.642.963Zm1.82-.107c.282.032.351-.148.321-.428-.288.007-.514.245-.321.428Zm-.428,4.5c-.16-.449-.361-1.42-.856-1.177C530.426,216.9,530.559,217.935,530.888,217.859Z" transform="translate(-321.496 -144.748)"/><path class="a" d="M372.45,285.214c.9-.388,1.136-1.433,1.82-2.034.331.214.084,1.157,0,1.605.426-.038.38-.547.535-.856.388.076.148.78.214,1.177a2.333,2.333,0,0,0,.428-1.177c.152.009.3.018.321-.107.967.321.387,1.047.321,1.927a3.592,3.592,0,0,0,.428-2.569c-.253-.675-1.619-.236-2.034-.749a.909.909,0,0,1,.107-.642c.654-.083.726.416,1.177.535.4-.366.728-1.315,1.284-1.177.089.366-.014.5.107.963,2.789.791.995-2.454,1.07-4.281.19-.1.136-.434.535-.321-.453-.5-.555.2-.856.428-.188-.026-.244-.184-.214-.428.235-.336.73-.412.749-.963.6.005.468.261,1.07.107,0,.252.184.315.107.642a3.021,3.021,0,0,0,2.141-.107,1.647,1.647,0,0,1,.856.856c.188-.1.2-.375.321-.535a2.458,2.458,0,0,0,1.926-.642c.259-1.311.922-2.218,1.177-3.532.231-.09.365-.277.749-.214.346.556-.39.806-.535,1.177-.689,1.77-.362,3.861-2.569,4.067-.255.024-.559-.16-.856-.107-.356.063-.777.5-1.177.535a5.3,5.3,0,0,1-2.462-.856c-.239.046-.043.527-.107.749.437.045.432-.352.963-.214.056.449-.187.6-.214.963.549.049.484-.515,1.07-.428.333.62-.446.954-.214,1.819.619.177.936-.351,1.284-.107-.9.653-1.059,1.778-1.177,3-.029.386.423.29.428.642.258-.455-.064-1.491.642-1.5.766.34.433,1.779.642,2.676-.432.318-1.462.036-1.5.749h-1.07c-.34.374-.3,1.131-.749,1.391-.5-.169-.049-1.076,0-1.391-.749.143.116,1.9-1.07,1.606a1.734,1.734,0,0,1,.214-1.712c-.213-.235-.774.2-.963-.214-.028.671.365.919.535,1.391-.145.562-1.258.955-1.391.107-.7.8-1.686.346-2.783.321a1.16,1.16,0,0,1,.321-1.391c-.147-.276-.656-.024-.856,0,.12.655-.288.782-.321,1.285-.863-.171-.162-.912,0-1.285-.629-.079-.8-.446-1.284-.428,0-.252-.184-.315-.107-.642-.138-.3-.221.337-.535.214.363-.825.946-1.6.214-2.462-.772-.726-2.819-.178-2.783-1.712.357-.036.475-.31.963-.214-.176-.252-.479-.377-.535-.749.643-1,3.054-.3,2.248.963.108.177.455.116.642.214.513,1.087.981,2.769-.214,3.425.752-.141.978-.806,1.177-1.5.719.245.162,1.542-.214,1.712Zm5.459-2.141c.325,0,.7.062.642-.321-.238.083-.58.062-.642.321Zm-.642.749c.344.023.26-.382.428-.535-.3.02-.456.186-.428.535Zm.535,1.713c.252,0,.315-.184.642-.107-.017-.126.018-.3-.107-.321-.078.243-.61.032-.535.428Zm-1.819.749a3.777,3.777,0,0,0,.535.963c-.144-.561.3-1.4.107-1.5-.178.215-.287.5-.642.535Zm-1.391.214c.018.3-.092.734.214.749,0-.46.569-.359.428-.963C374.9,286.232,374.99,286.612,374.591,286.5Z" transform="translate(-205.014 -200.329)"/></g></svg>