<svg xmlns="http://www.w3.org/2000/svg" width="80.193" height="85" viewBox="0 0 80.193 85"><defs><style>.a{fill:#fff;}.b{fill:#1b2026;}</style></defs><path class="a" d="M49.277,35.041A2.982,2.982,0,0,0,46.2,37.927,3.085,3.085,0,0,0,49.277,41a2.957,2.957,0,0,0,3.077-3.077A2.858,2.858,0,0,0,49.277,35.041Z" transform="translate(27.838 21.113)"/><path class="b" d="M49.059,35.281a2.493,2.493,0,0,1,2.5,2.5,2.331,2.331,0,0,1-2.5,2.5,2.438,2.438,0,0,1-2.5-2.5A2.639,2.639,0,0,1,49.059,35.281Z" transform="translate(28.056 21.259)"/><path class="a" d="M47.98,37.875h.574l.963,1.348h.575l-.96-1.54c.484.024.877-.248.96-.962-.083-.6-.49-.905-1.346-.962H47.4v3.462h.577V37.875h0Z" transform="translate(28.562 21.548)"/><path class="b" d="M47.762,36.129h.768c.319-.074.712.008.769.385-.058.591-.46.625-.963.577h-.574v-.962Z" transform="translate(28.78 21.755)"/><path class="a" d="M31.54,54.809h8.075V0H31.54ZM25.769,0H30c-.006,25.614-.662,31.835-4.614,39.425C21.479,46.9,10.513,54.756,1.154,55.579V47.309c7.064-1.066,13.449-5.487,19.04-13.846C25.739,25.123,25.9,5.311,25.769,0ZM45.579,0H41.346c-.056,25.614.6,31.835,4.615,39.425C49.8,46.9,60.774,54.756,70.192,55.579V47.309c-7.127-1.066-13.514-5.487-19.038-13.846C45.546,25.123,45.383,5.311,45.579,0Zm20,85h3.846V60.194H65.579ZM16.154,60.194v3.654h5.194V85h3.845V63.848h5V60.194ZM40.965,78.848,42.694,85h3.845L40.192,62.692c-.606-2.356-1.987-2.537-2.885-2.5-1.026-.037-2.409.144-3.075,2.5L27.886,85h3.845l1.732-6.152ZM52.311,65V85H48.462V63.848c.079-2.551,1.1-3.692,3.655-3.654h4.037c3.085-.037,6.748,2.245,6.731,7.308.018,4.915-2.745,6.176-4.229,6.923-.8.635-.622,1.115-.192,1.923L64.231,85H59.809l-5.577-8.652c-1.123-1.647-.643-3.452.575-4.04.78-.465,4.369-1.455,4.425-4.614-.056-3.091-1.918-3.814-3.269-3.846H53.269c-.641.032-1,.335-.958,1.154ZM13.077,78.848,14.808,85h3.848L12.308,62.692c-.566-2.356-1.947-2.537-2.883-2.5-.987-.037-2.37.144-3.079,2.5L0,85H3.848l1.731-6.152Z"/><path class="b" d="M32.086,50.465l2.691-9.425,2.692,9.425H32.086Zm-27.886,0L6.894,41.04l2.692,9.425Z" transform="translate(2.531 24.729)"/></svg>