<svg xmlns="http://www.w3.org/2000/svg" xmlns:xlink="http://www.w3.org/1999/xlink" width="50" height="50" viewBox="0 0 50 50"><defs><style>.a{fill:url(#a);}.b{fill:#fff;}</style><linearGradient id="a" x1="0.878" y1="0.849" x2="0.122" y2="0.146" gradientUnits="objectBoundingBox"><stop offset="0" stop-color="#6929ff"/><stop offset="1" stop-color="#dd2afd"/></linearGradient></defs><circle class="a" cx="25" cy="25" r="25"/><path class="b" d="M136.219,369.756c-.436-4.8-3.928-6.256-6.256-6.256a6.357,6.357,0,0,0-3.976,1.8,26.122,26.122,0,0,0-5.118-.708,26.123,26.123,0,0,0-5.118.708,6.357,6.357,0,0,0-3.976-1.8c-2.328,0-5.82,1.455-6.256,6.256s-1.018,11.058-1.018,11.058,0,4.365,4.219,4.365,7.711-6.256,7.711-6.256l.036-.073h8.8l.036.073s3.492,6.256,7.711,6.256,4.219-4.365,4.219-4.365S136.655,374.558,136.219,369.756Zm-23.716,6.4-4.219-4.219,4.219-4.219,4.219,4.219Zm16.769-8.439,1.637,1.637-1.637,1.637-1.637-1.637Zm-4.256,4.256,1.637-1.637,1.637,1.637-1.637,1.637Zm4.256,4.183-1.637-1.637,1.637-1.637,1.637,1.637Zm2.546-2.546-1.637-1.637,1.637-1.637,1.637,1.637Z" transform="translate(-95.5 -349.5)"/></svg>