<svg xmlns="http://www.w3.org/2000/svg" width="148" height="34.472" viewBox="0 0 148 34.472">
  <g id="Logo_sandbox" data-name="Logo sandbox" transform="translate(-16 -8)">
    <path id="Trazado_1" data-name="Trazado 1" d="M1497.262,1153.805h2.22v-.55l-.558-.555h-2.768l-.557.555v4.412l.557.55h2.768l.558-.55v-.55h-2.22v-1.105h2.22v-1.1h-2.22Z" transform="translate(-1405.815 -1139.768)" fill="#fff"/>
    <rect id="Rectángulo_2" data-name="Rectángulo 2" width="3.133" height="3.12" transform="translate(90.16 8)" fill="#3bbff0"/>
    <path id="Trazado_2" data-name="Trazado 2" d="M1379.125,1152.7v2.211h-1.663V1152.7h-1.105l-.557.555v4.412l.557.55h1.105v-2.206h1.663v2.206h1.11l.552-.55v-4.412l-.552-.555Z" transform="translate(-1291.926 -1139.768)" fill="#fff"/>
    <path id="Trazado_3" data-name="Trazado 3" d="M1256.557,1152.7l-.558.555v.55h1.663v3.861l.557.55h.553l.552-.55v-3.861h1.662v-.55l-.553-.555Z" transform="translate(-1178.035 -1139.768)" fill="#fff"/>
    <path id="Trazado_5" data-name="Trazado 5" d="M1257.9,1303.7v22.073h15.516l2.215-2.206v-17.656l-2.215-2.206H1257.9Zm6.65,4.417h4.435v13.245h-4.435Z" transform="translate(-1179.842 -1283.35)" fill="#fff"/>
    <path id="Trazado_6" data-name="Trazado 6" d="M1662.2,1303.7v22.073h15.516l2.215-2.206v-6.623l-2.215-2.206,2.215-2.206v-6.622l-2.215-2.206H1662.2Zm6.65,13.245h4.435v4.417h-4.435v-4.417m0-4.417v-4.412h4.435v4.412Z" transform="translate(-1564.196 -1283.35)" fill="#fff"/>
    <path id="Trazado_7" data-name="Trazado 7" d="M2068.815,1303.7l-2.215,2.206v17.656l2.215,2.206h13.3l2.215-2.206v-17.656l-2.215-2.206Zm4.43,4.417h4.435v13.245h-4.435Z" transform="translate(-1948.645 -1283.35)" fill="#fff"/>
    <path id="Trazado_11" data-name="Trazado 11" d="M0,0,5.908.012,5.92,5.92.012,5.908Z" transform="translate(155.628 31.389) rotate(-45)" fill="#3bbff0"/>
    <path id="Trazado_8" data-name="Trazado 8" d="M2481.98,1303.7v6.622l-2.215,2.206-2.215-2.206V1303.7h-4.436l-2.215,2.211v6.617l2.215,2.211-2.215,2.206v6.622l2.215,2.206h4.436v-6.622l2.215-2.206,2.215,2.206v6.622h4.436l2.215-2.206v-6.622l-2.215-2.206,2.215-2.211v-6.617l-2.215-2.211Z" transform="translate(-2332.999 -1283.35)" fill="#fff"/>
    <path id="Trazado_9" data-name="Trazado 9" d="M822,1303.7v6.622l-6.65-6.622h-4.43l-2.215,2.211v17.656l2.215,2.206h4.43v-13.245l6.65,6.622v6.622h4.435l2.215-2.206v-17.656l-2.215-2.211Z" transform="translate(-752.803 -1283.35)" fill="#fff"/>
    <path id="Trazado_10" data-name="Trazado 10" d="M419.911,1304.7h-13.3l-2.215,2.206v17.656l2.215,2.206h4.435v-8.828h4.43v8.833h4.43l2.215-2.206v-17.656Zm-6.65,9.639-2.832-2.82,2.832-2.82,2.832,2.82Z" transform="translate(-368.449 -1284.301)" fill="#fff"/>
    <path id="Trazado_6331" data-name="Trazado 6331" d="M2.215,1303.7,0,1305.911v8.828l2.215,2.206h8.865v4.411H6.65v-2.206H0v4.417l2.215,2.206h13.3l2.215-2.206v-8.828l-2.215-2.211H6.65v-4.412h4.43v2.206h6.65v-4.411l-2.215-2.211Z" transform="translate(16 -1283.35)" fill="#fff"/>
  </g>
</svg>
